<svg width="687" height="671" viewBox="0 0 687 671" fill="none" xmlns="http://www.w3.org/2000/svg">
<path d="M80.6057 419.288C82.3287 417.288 84.1269 415.331 86.0004 413.422L86.3573 413.772C87.2832 412.828 88.2276 411.896 89.1904 410.976L92.1305 408.167L91.7851 407.805L97.6658 402.186L98.0112 402.548L103.892 396.928L103.546 396.567L109.427 390.948L109.773 391.309L115.653 385.69L115.308 385.328L121.189 379.709L121.534 380.071L127.415 374.451L127.069 374.09L132.95 368.471L133.295 368.832L139.176 363.213L138.831 362.851L144.711 357.232L145.057 357.594L150.937 351.975L150.592 351.613L156.473 345.994L156.818 346.355L162.699 340.736L162.353 340.375L168.234 334.755L168.58 335.117L174.46 329.498L174.115 329.136L179.996 323.517L180.341 323.878L186.222 318.259L185.876 317.898L191.757 312.278L192.102 312.64L197.983 307.021L197.638 306.659L203.518 301.04L203.864 301.401L209.744 295.782L209.399 295.421L215.28 289.801L215.625 290.163L221.506 284.544L221.16 284.182L227.041 278.563L227.387 278.924L233.267 273.305L232.922 272.944L238.803 267.324L239.148 267.686L245.029 262.067L244.683 261.705L250.564 256.086L250.909 256.447L256.79 250.828L256.445 250.467L262.325 244.847L262.671 245.209L268.551 239.59L268.206 239.228L274.087 233.609L274.432 233.97L280.313 228.351L279.967 227.99L285.848 222.37L286.194 222.732L292.074 217.113L291.729 216.751L297.61 211.132L297.955 211.493L303.836 205.874L303.49 205.513L309.371 199.893L309.716 200.255L315.597 194.636L315.252 194.274L321.132 188.655L321.478 189.016L327.358 183.397L327.013 183.036L332.894 177.416L333.239 177.778L339.12 172.159L338.774 171.797L344.655 166.178L345.001 166.539L350.881 160.92L350.536 160.559L356.416 154.939L356.762 155.301L362.643 149.682L362.297 149.32L368.178 143.701L368.523 144.062L374.404 138.443L374.059 138.082L379.939 132.462L380.285 132.824L386.165 127.205L385.82 126.843L391.701 121.224L392.046 121.585L397.927 115.966L397.581 115.605L403.462 109.985L403.807 110.347L409.688 104.728L409.343 104.366L415.223 98.747L415.569 99.1085L421.45 93.4892L421.104 93.1277L426.985 87.5085L427.33 87.87L430.271 85.0604C431.233 84.1404 432.207 83.2394 433.192 82.3573L432.858 81.9849C434.851 80.2001 436.887 78.4926 438.964 76.8623L439.272 77.2556C441.368 75.6101 443.504 74.0437 445.678 72.5562L445.395 72.1435C447.601 70.6339 449.845 69.2051 452.122 67.8572L452.377 68.2875C454.664 66.9334 456.986 65.6613 459.339 64.471L459.113 64.0249C461.494 62.82 463.905 61.6986 466.343 60.6605L466.539 61.1206C468.983 60.0801 471.453 59.1238 473.946 58.2515L473.781 57.7795C476.296 56.8994 478.833 56.1044 481.389 55.3945L481.523 55.8763C484.079 55.1663 486.653 54.5418 489.241 54.0026L489.139 53.5131C491.746 52.9701 494.366 52.5132 496.996 52.1425L497.066 52.6376C499.69 52.2676 502.323 51.9837 504.961 51.7858L504.924 51.2872C507.577 51.0882 510.234 50.9757 512.892 50.9497L512.897 51.4497C515.545 51.4237 518.193 51.4839 520.837 51.6302L520.865 51.1309C523.519 51.2777 526.169 51.5109 528.809 51.8302L528.749 52.3266C531.376 52.6442 533.994 53.0475 536.598 53.5363L536.691 53.0449C539.301 53.5348 541.898 54.1102 544.477 54.7712L544.353 55.2555C546.914 55.9118 549.457 56.6527 551.978 57.4781L552.133 57.0029C554.654 57.8282 557.153 58.7376 559.626 59.7312L559.439 60.1951C561.89 61.1798 564.314 62.2474 566.708 63.3978L566.924 62.9472C569.313 64.0949 571.671 65.3248 573.995 66.6366L573.749 67.0721C576.044 68.368 578.306 69.7444 580.53 71.2009L580.804 70.7827C583.018 72.2327 585.194 73.762 587.329 75.3703L587.028 75.7697C589.132 77.3544 591.195 79.0163 593.213 80.7553L593.54 80.3765C595.54 82.0994 597.496 83.8977 599.406 85.7712L599.055 86.1281C599.999 87.054 600.931 87.9984 601.851 88.9612C602.771 89.924 603.672 90.898 604.554 91.8827L604.927 91.5491C606.711 93.5417 608.419 95.578 610.049 97.6542L609.656 97.963C611.301 100.059 612.868 102.195 614.355 104.368L614.768 104.086C616.278 106.292 617.706 108.535 619.054 110.813L618.624 111.067C619.978 113.355 621.25 115.677 622.44 118.029L622.886 117.803C624.091 120.184 625.213 122.596 626.251 125.034L625.791 125.23C626.831 127.674 627.788 130.144 628.66 132.637L629.132 132.471C630.012 134.986 630.807 137.524 631.517 140.08L631.035 140.214C631.745 142.77 632.37 145.344 632.909 147.932L633.398 147.83C633.941 150.436 634.398 153.057 634.769 155.686L634.274 155.756C634.644 158.38 634.928 161.014 635.126 163.652L635.624 163.615C635.823 166.267 635.936 168.925 635.962 171.583L635.462 171.588C635.488 174.236 635.427 176.884 635.281 179.528L635.78 179.556C635.634 182.209 635.4 184.859 635.081 187.5L634.585 187.44C634.267 190.067 633.864 192.684 633.375 195.289L633.866 195.381C633.377 197.991 632.801 200.588 632.14 203.167L631.656 203.043C631 205.604 630.259 208.147 629.433 210.668L629.908 210.824C629.083 213.345 628.174 215.844 627.18 218.316L626.716 218.13C625.731 220.58 624.664 223.004 623.513 225.398L623.964 225.615C622.816 228.003 621.586 230.361 620.275 232.685L619.839 232.439C618.543 234.735 617.167 236.997 615.71 239.22L616.129 239.494C614.679 241.708 613.149 243.885 611.541 246.019L611.142 245.719C609.557 247.822 607.895 249.885 606.156 251.904L606.535 252.23C604.812 254.23 603.014 256.187 601.14 258.096L600.783 257.746C599.857 258.689 598.913 259.621 597.95 260.542L595.01 263.351L595.355 263.712L589.475 269.332L589.129 268.97L583.249 274.589L583.594 274.951L577.713 280.57L577.368 280.209L571.487 285.828L571.833 286.189L565.952 291.809L565.606 291.447L559.726 297.066L560.071 297.428L554.19 303.047L553.845 302.686L547.964 308.305L548.31 308.666L542.429 314.286L542.084 313.924L536.203 319.543L536.548 319.905L530.668 325.524L530.322 325.163L524.442 330.782L524.787 331.143L518.906 336.763L518.561 336.401L512.68 342.02L513.026 342.382L507.145 348.001L506.799 347.64L500.919 353.259L501.264 353.62L495.384 359.24L495.038 358.878L489.157 364.497L489.503 364.859L483.622 370.478L483.277 370.117L477.396 375.736L477.741 376.097L471.861 381.717L471.515 381.355L465.635 386.974L465.98 387.336L460.099 392.955L459.754 392.594L453.873 398.213L454.219 398.574L448.338 404.194L447.992 403.832L442.112 409.451L442.457 409.813L436.577 415.432L436.231 415.071L430.35 420.69L430.696 421.051L424.815 426.671L424.47 426.309L418.589 431.928L418.934 432.29L413.054 437.909L412.708 437.548L406.828 443.167L407.173 443.528L401.292 449.148L400.947 448.786L395.066 454.405L395.412 454.767L389.531 460.386L389.186 460.025L383.305 465.644L383.65 466.005L377.77 471.625L377.424 471.263L371.543 476.882L371.889 477.244L366.008 482.863L365.663 482.502L359.782 488.121L360.127 488.482L354.247 494.102L353.901 493.74L348.021 499.359L348.366 499.721L342.485 505.34L342.14 504.979L336.259 510.598L336.605 510.959L330.724 516.578L330.379 516.217L324.498 521.836L324.843 522.198L318.963 527.817L318.617 527.455L312.736 533.075L313.082 533.436L307.201 539.055L306.856 538.694L300.975 544.313L301.321 544.675L295.44 550.294L295.094 549.932L289.214 555.552L289.559 555.913L283.678 561.532L283.333 561.171L277.452 566.79L277.798 567.152L271.917 572.771L271.572 572.409L265.691 578.029L266.036 578.39L260.156 584.009L259.81 583.648L256.87 586.457C255.907 587.377 254.933 588.278 253.948 589.161L254.282 589.533C252.289 591.318 250.253 593.025 248.177 594.656L247.868 594.262C245.773 595.908 243.636 597.474 241.463 598.962L241.745 599.374C239.539 600.884 237.296 602.313 235.018 603.661L234.764 603.23C232.476 604.584 230.154 605.857 227.802 607.047L228.028 607.493C225.647 608.698 223.235 609.819 220.797 610.857L220.601 610.397C218.158 611.438 215.687 612.394 213.194 613.266L213.36 613.738C210.845 614.618 208.307 615.413 205.751 616.123L205.618 615.642C203.062 616.352 200.487 616.976 197.899 617.515L198.001 618.005C195.395 618.548 192.774 619.005 190.145 619.375L190.075 618.88C187.451 619.25 184.817 619.534 182.179 619.732L182.216 620.231C179.564 620.43 176.906 620.542 174.248 620.568L174.243 620.068C171.595 620.094 168.947 620.034 166.303 619.888L166.275 620.387C163.622 620.24 160.972 620.007 158.331 619.688L158.391 619.191C155.764 618.874 153.147 618.47 150.542 617.982L150.45 618.473C147.84 617.983 145.243 617.408 142.664 616.747L142.788 616.262C140.227 615.606 137.684 614.865 135.163 614.04L135.007 614.515C132.486 613.69 129.987 612.78 127.515 611.787L127.701 611.323C125.251 610.338 122.827 609.27 120.433 608.12L120.216 608.571C117.828 607.423 115.47 606.193 113.146 604.881L113.392 604.446C111.096 603.15 108.834 601.774 106.611 600.317L106.337 600.735C104.123 599.285 101.946 597.756 99.8116 596.148L100.112 595.748C98.0089 594.163 95.9459 592.502 93.9273 590.763L93.6009 591.141C91.6009 589.418 89.6443 587.62 87.735 585.747L88.0852 585.39C87.1415 584.464 86.2095 583.519 85.2895 582.557C84.3695 581.594 83.4684 580.62 82.5864 579.635L82.2139 579.969C80.4291 577.976 78.7217 575.94 77.0913 573.864L77.4846 573.555C75.8392 571.459 74.2728 569.323 72.7852 567.15L72.3726 567.432C70.8629 565.226 69.4342 562.983 68.0862 560.705L68.5166 560.451C67.1625 558.163 65.8904 555.841 64.7001 553.489L64.254 553.714C63.0491 551.334 61.9277 548.922 60.8896 546.484L61.3496 546.288C60.3093 543.844 59.3529 541.374 58.4806 538.881L58.0087 539.046C57.1285 536.531 56.3336 533.994 55.6237 531.438L56.1054 531.304C55.3955 528.748 54.7709 526.174 54.2317 523.586L53.7422 523.688C53.1992 521.082 52.7424 518.461 52.3716 515.831L52.8667 515.762C52.4968 513.138 52.2129 510.504 52.0149 507.866L51.5164 507.903C51.3174 505.251 51.2048 502.593 51.1788 499.935L51.6788 499.93C51.6529 497.282 51.7131 494.634 51.8593 491.99L51.3601 491.962C51.5069 489.308 51.74 486.659 52.0594 484.018L52.5557 484.078C52.8734 481.451 53.2767 478.833 53.7655 476.229L53.2741 476.137C53.7639 473.526 54.3394 470.93 55.0003 468.351L55.4847 468.475C56.141 465.914 56.8818 463.371 57.7072 460.849L57.232 460.694C58.0574 458.173 58.9669 455.674 59.9604 453.202L60.4243 453.388C61.409 450.938 62.4766 448.513 63.627 446.12L63.1764 445.903C64.3242 443.515 65.554 441.156 66.8658 438.833L67.3012 439.079C68.5972 436.783 69.9736 434.521 71.4301 432.297L71.0119 432.023C72.4619 429.81 73.9912 427.633 75.5995 425.498L75.9988 425.799C77.5836 423.696 79.2455 421.633 80.9845 419.614L80.6057 419.288Z" stroke="#794DFF" stroke-opacity="0.3" stroke-dasharray="8 8"/>
<path d="M442.875 102.783C482.909 64.5287 546.374 65.9716 584.629 106.006C622.883 146.04 621.44 209.505 581.406 247.759L243.359 570.777C203.324 609.031 139.859 607.588 101.605 567.554C63.3509 527.52 64.7937 464.055 104.828 425.801L442.875 102.783Z" fill="url(#paint0_linear_4650_23989)" fill-opacity="0.08"/>
<path d="M443.221 103.144C483.055 65.081 546.204 66.5167 584.267 106.351C622.331 146.186 620.895 209.334 581.06 247.398L243.013 570.416C203.179 608.479 140.03 607.043 101.967 567.209C63.9031 527.374 65.3388 464.226 105.173 426.162L443.221 103.144Z" stroke="#794DFF" stroke-opacity="0.2"/>
<defs>
<linearGradient id="paint0_linear_4650_23989" x1="584.629" y1="106.006" x2="101.605" y2="567.554" gradientUnits="userSpaceOnUse">
<stop stop-color="#794DFF"/>
<stop offset="1" stop-color="#794DFF" stop-opacity="0.2"/>
</linearGradient>
</defs>
</svg>
