<svg width="34" height="36" viewBox="0 0 34 36" fill="none" xmlns="http://www.w3.org/2000/svg">
<g id="Icon">
<path id="Subtract" fill-rule="evenodd" clip-rule="evenodd" d="M30.8378 13.9848C31.4278 15.5869 31.75 17.3185 31.75 19.1253C31.75 27.3405 25.0902 34.0003 16.875 34.0003C8.65976 34.0003 2 27.3405 2 19.1253C2 11.6332 7.5389 5.43483 14.7452 4.40164C15.3124 3.67029 16.0329 2.88428 16.6759 2.25146C7.44783 2.35815 0 9.87196 0 19.1253C0 28.4451 7.55519 36.0003 16.875 36.0003C26.1948 36.0003 33.75 28.4451 33.75 19.1253C33.75 16.4084 33.1079 13.8415 31.9673 11.568C31.6297 12.3757 31.2082 13.2572 30.8378 13.9848ZM26.2619 5.09995C25.3468 4.4863 24.3684 3.95983 23.3385 3.53243C24.3168 4.04162 25.3088 4.57242 26.2619 5.09995Z" fill="url(#paint0_linear_4374_8222)"/>
<g id="Icon_2">
<g id="Mask group">
<mask id="mask0_4374_8222" style="mask-type:alpha" maskUnits="userSpaceOnUse" x="2" y="4" width="30" height="31">
<ellipse id="Ellipse 7" cx="14.875" cy="14.875" rx="14.875" ry="14.875" transform="matrix(-1 0 0 1 31.75 4.25024)" fill="#3F404D"/>
</mask>
<g mask="url(#mask0_4374_8222)">
<path id="Vector 3" d="M2.65086 26.0551C4.91743 27.4492 8.72085 27.4982 11.2084 23.469C11.359 23.225 11.6791 23.1399 11.9216 23.293C12.7755 23.832 14.2031 24.7455 15.5293 25.6315C15.7214 25.7598 15.7996 26.0036 15.7175 26.2194C14.4042 29.6708 13.1313 32.1021 16.8564 35.0001C11.6396 34.3231 6.38697 30.9603 2.65086 26.0551Z" fill="#794DFF"/>
</g>
</g>
<path id="Vector" d="M27.759 0.470177C28.0213 0.463773 28.3242 0.649888 28.4394 0.885679C29.0877 2.24481 29.3589 3.36037 29.6264 4.47681C30.7262 9.06714 28.9329 12.4082 26.1963 15.2414L27.3061 19.8736C27.4806 20.6017 27.1574 21.5845 26.5864 22.0623L22.7318 25.3138C22.5969 25.4167 22.4464 25.4939 22.279 25.5399C21.6907 25.6808 21.0989 25.317 20.9673 24.7677L19.86 20.1462L19.0912 21.346C18.2343 22.7458 18.1867 22.5063 17.0822 21.8273C17.0822 21.8273 15.6616 20.9541 14.2816 20.1057C12.9015 19.2574 13.1183 19.2055 13.5614 18.4818L14.5585 16.8529L9.95627 17.9988C9.368 18.1397 8.77617 17.7759 8.64456 17.2266C8.61014 17.0585 8.61103 16.8907 8.64163 16.7245L9.78207 11.8086C9.9537 11.0799 10.6759 10.3467 11.4031 10.1725L16.042 9.05804C17.3228 5.34128 19.5003 2.25158 24.0555 1.16022C25.1462 0.766938 26.2579 0.500586 27.759 0.470177Z" fill="#794DFF"/>
<circle id="Ellipse 6" cx="24.5" cy="6.89941" r="2" fill="white"/>
</g>
</g>
<defs>
<linearGradient id="paint0_linear_4374_8222" x1="22" y1="10.5" x2="9" y2="33" gradientUnits="userSpaceOnUse">
<stop stop-color="#794DFF" stop-opacity="0"/>
<stop offset="0.563954" stop-color="#794DFF" stop-opacity="0.423437"/>
<stop offset="0.879734" stop-color="#794DFF"/>
</linearGradient>
</defs>
</svg>
